<svg xmlns="http://www.w3.org/2000/svg" viewbox="0 0 400 400">
	<defs>
	  <clipPath id="faceShape">
	<path class="cls-1" d="M63.25,90a2.79,2.79,0,0,0,1.51-.44,43.52,43.52,0,0,1,6.44-3.44,48.93,48.93,0,0,0,7.15-3.82c3.16-2,4.76-2.85,6.46-3.76s3.49-1.86,6.83-4a2.84,2.84,0,0,0-3-4.8c-3.16,2-4.77,2.86-6.47,3.76s-3.48,1.87-6.82,4a43.25,43.25,0,0,1-6.43,3.43,49.42,49.42,0,0,0-7.15,3.82A2.84,2.84,0,0,0,63.25,90Z"/><path class="cls-1" d="M125.58,84.44l8.9,4.29,8.59,4.74,8.57,4.93,8.52,5.14.17.1,8.87,4.53a2.81,2.81,0,0,0,1.28.31,2.84,2.84,0,0,0,1.3-5.36L163,98.63l-8.48-5.11-8.67-5-8.7-4.8-.14-.07-9-4.33a2.84,2.84,0,0,0-2.46,5.11Z"/><path class="cls-1" d="M64.28,151.6c0,1.71-.1,2.89-.16,4.1-.1,1.78-.19,3.62-.19,7.23a2.82,2.82,0,0,0,5.39,1.19v.44A1.42,1.42,0,0,0,70.71,166h0a1.41,1.41,0,0,0,1.41-1.39,26.79,26.79,0,0,0-.74-7.43,23.92,23.92,0,0,1-.69-6.44H71a26.84,26.84,0,0,0,7.42-.95,1.42,1.42,0,0,0,1-1.73,1.06,1.06,0,0,0-.09-.25h0c1.35-.18,2.7-.27,4-.34l4.2-.07,5.67-.07a26,26,0,0,0,1.1,4.76,23.76,23.76,0,0,1,1.22,6.68A1.42,1.42,0,0,0,97,160.12h.08a1.39,1.39,0,0,0,1-.49,2.8,2.8,0,0,0,2.14,1,2.84,2.84,0,0,0,2.83-2.84,28.16,28.16,0,0,0-1-7.75,24.92,24.92,0,0,1-.57-2.79l3.26,0,17.09-.31c1.7,0,3.4-.06,5.1-.09l-.51,3.2a2.83,2.83,0,0,0,2.37,3.23,2.18,2.18,0,0,0,.44,0,2.82,2.82,0,0,0,2.15-1c-.18.77-.4,1.68-.65,2.83a1,1,0,0,0,.75,1.18.83.83,0,0,0,.22,0,1,1,0,0,0,1-.78c.62-2.82,1-4.23,1.35-5.61.23-.88.47-1.79.77-3.06,1.35,0,2.7.09,4,.16a101.63,101.63,0,0,1,16.61,2.16l.07,0,0,0a74.6,74.6,0,0,0-4.63,10.57,41.42,41.42,0,0,0-1.86,13,2.84,2.84,0,0,0,5.67,0,35.76,35.76,0,0,1,1.59-11.27c.09-.29.21-.57.31-.86-.09.94-.12,1.75-.15,2.55a25.23,25.23,0,0,1-1,6.85.86.86,0,0,0,.6,1,.83.83,0,0,0,.22,0,.84.84,0,0,0,.82-.63,26.78,26.78,0,0,0,1-7.25,25.8,25.8,0,0,1,1-6.86,23.79,23.79,0,0,1,2.23-5.72,43.8,43.8,0,0,1,9.44,4.06,2.24,2.24,0,0,0,2.3-3.84,47.38,47.38,0,0,0-9.68-4.35,26.24,26.24,0,0,0,.86-2.56,43,43,0,0,1,2.59-4.16,2.83,2.83,0,1,0-4.69-3.18,36.58,36.58,0,0,0-4,6.92l-.61,1.34-1.16-.28a105.82,105.82,0,0,0-17.33-2.41c-1.09-.07-2.19-.11-3.29-.16a28.71,28.71,0,0,0,.37-3.79,27.09,27.09,0,0,1,.73-5.6,1,1,0,0,0-1.75-.81h0a2.83,2.83,0,0,0-5.6-.88c-.74,4.73-1.16,7.13-1.56,9.45-.09.48-.17,1-.26,1.47l-5.92.05-17.19.15-3.33,0a20.65,20.65,0,0,1,.79-4.88,27.25,27.25,0,0,0,1-7.79,2.84,2.84,0,0,0-5.67,0,21.32,21.32,0,0,1-.75,6.1,27.61,27.61,0,0,0,.13-5.22,1.43,1.43,0,0,0-1.5-1.33,1.41,1.41,0,0,0-1.33,1.5,23,23,0,0,1-.47,6.76,25.07,25.07,0,0,0-.58,4.89l-5.38,0-4.38,0c-1.5.07-3,.16-4.48.33a70.1,70.1,0,0,0-7,1.18h0a25.25,25.25,0,0,0,1.13-7.41,1.42,1.42,0,0,0-2.39-1.07c0-.21,0-.41,0-.63a2.84,2.84,0,0,0-5.67,0c0,3.44-.12,5.11-.25,6.87-.09,1.17-.17,2.37-.22,4.07l-2.71.71c-2.71.66-5.49,1.28-8.27,1.86-1.4.3-2.8.59-4.31,1A17.57,17.57,0,0,0,44.41,151a37.25,37.25,0,0,0-3.81,2.65l-3.41,2.67h0a2.84,2.84,0,1,0,3.54,4.44l0,0L44,158.08a32.53,32.53,0,0,1,3.2-2.27,11,11,0,0,1,2.06-1,1.48,1.48,0,0,0-.07.91,1.42,1.42,0,0,0,1.37,1.06,1.49,1.49,0,0,0,.36,0,27.37,27.37,0,0,0,6.95-2.7,25,25,0,0,1,6.33-2.46Zm68.52-4.78c-.09.4-.18.76-.27,1.1.06-.39.12-.75.18-1.11Zm1.46-9.08,0,.47a25.53,25.53,0,0,1-.37,3.8h-.34c0-.19.07-.39.1-.58C133.82,140.3,134,139.15,134.26,137.74Z"/><path class="cls-1" d="M248.26,69.64c-3.79-3.88-11-3.52-21.85,1.09l-8.19-8.12A59.31,59.31,0,0,1,235.9,51.79a1.41,1.41,0,1,0-1-2.65,62.44,62.44,0,0,0-18.73,11.44L211.57,56a52.76,52.76,0,0,1,8.14-3.92,1.41,1.41,0,1,0-1-2.65,56.86,56.86,0,0,0-9.23,4.5L207.57,52a77.82,77.82,0,0,1,23.85-10.4,2.84,2.84,0,0,0-1.3-5.52,84.37,84.37,0,0,0-26.71,11.8l-.51-.5,16.39-11.21a50,50,0,0,1,5.47-2.09,1.42,1.42,0,0,0-.85-2.71,57.47,57.47,0,0,0-11.08,4.91,2.82,2.82,0,0,0-3.25-4.2,59.7,59.7,0,0,0-14.86,7.18l-3-3,.52-.54,2.7,1a1.52,1.52,0,0,0,.51.09,1.42,1.42,0,0,0,.51-2.74l-1.57-.6.92-1s.09,0,.14,0a1.42,1.42,0,0,0,1.4-1.61l7.92-8.16a2.84,2.84,0,1,0-4.07-3.95l-9,9.32L188.46,27a1.4,1.4,0,0,0-.55-.4l-1.86-.71L192.77,19a1.41,1.41,0,0,0-2-2l-7.57,7.8-8.07-3.1,11.82-10.28a2.84,2.84,0,1,0-3.72-4.28L169.11,19.4l-6.62-2.53,9.21-6.62a2.83,2.83,0,1,0-3.31-4.6l-12.23,8.79-.91-.35a1.4,1.4,0,0,0-1.49-1.1l-1.15.09-4.48-1.72L154.66,7a1.42,1.42,0,0,0-1.58-2.36l-8.19,5.48-3.7-1.41a1.42,1.42,0,0,0-1,2.64L142,12l-1.51,1-4.57-2.3a1.4,1.4,0,0,0-1.9.62,1.43,1.43,0,0,0,.63,1.91l2,1-10.44.8,11.31-7.56a2.84,2.84,0,1,0-3.15-4.72l-5.86,3.92a2.9,2.9,0,0,0-1.78-.26l-5.55,1,3.49-2.33A2.83,2.83,0,0,0,121.54.48L105.75,11l3.55-8.19a1.42,1.42,0,1,0-2.6-1.13l-5.31,12.23L96.23,17.4l-2,.15-.06-.43a1.41,1.41,0,0,0-.41-2.57L92.21,4.93a2.84,2.84,0,0,0-5.6.89l1.61,10.07L87,16.24,85.31,5.9a1.42,1.42,0,0,0-2.8.45L84.21,17l-3.14.87-7.45-14a2.84,2.84,0,0,0-5,2.66l6.86,12.91-1.5.42-3-7.12a2.84,2.84,0,1,0-5.24,2.18l2.69,6.46-2.84.79-6.73-17a1.42,1.42,0,0,0-2.64,1.05l6.63,16.76-3.31.91L54.1,12.92A2.83,2.83,0,1,0,49,15.47l5,9.9-3,.81L38.67,14.54a1.42,1.42,0,0,0-1.94,2.07L48.54,27.72a1.31,1.31,0,0,0,0,.62,1.43,1.43,0,0,0,1.37,1,1.86,1.86,0,0,0,.33,0l6.27,5.9c-.49.36-1,.73-1.45,1.1L44.11,26a1.41,1.41,0,0,0-1.94,2.06L52.86,38.15c-.61.52-1.22,1.07-1.81,1.62L34.79,24.47a1.41,1.41,0,1,0-1.94,2.06L49,41.76c-.3.31-.61.61-.9.93a2.87,2.87,0,0,0-.4-.46l-26-23.82a2.83,2.83,0,0,0-3.83,4.18L33.3,36.7l-2.93-1.51a2.83,2.83,0,0,0-2.59,5L42.84,48C15,69.78.94,97.82,0,133.66v0c.15,1.25.28,2.71.42,4.25.34,3.76.76,8.44,1.62,13,5.36,28.49,22.6,53.25,48.53,69.72a120.39,120.39,0,0,0,64.66,18.77A123.5,123.5,0,0,0,138,237.3c58.29-11,97.83-61,92-116.42a101.82,101.82,0,0,0-8.34-31.22c10.13-2.8,16.4-3,18.31-2.22a2.83,2.83,0,0,0,2.18-5.23c-5-2.08-14.81-.07-23,2.28-.53-1-1.08-2-1.65-3,2.14-1.21,4.39-2.4,6.66-3.49l4.32-1.24,3,3a1.41,1.41,0,1,0,2-2l-1.9-1.89,10.82-3.11a3.36,3.36,0,0,1,1.83.88,2.84,2.84,0,0,0,4-4ZM53.46,28.46,55.3,28l2.12,4.24Zm55.77-12.94,8.56-1.6L114.71,16l-7,.53Zm86.18,35.39a1.42,1.42,0,0,0,.26,2,1.26,1.26,0,0,0,.5.23l-1.08.87c-.5-.44-1-.9-1.48-1.34-1.08-.94-2.18-1.85-3.29-2.75a64,64,0,0,1,6.13-4.9l2.24,2.23A45.38,45.38,0,0,0,195.41,50.91ZM174.55,33.68l-9.17-3.52,1-.88,8.34,4.2ZM209.48,83a2.84,2.84,0,0,0,2.4,1.32,2.57,2.57,0,0,0,.62-.08c.36.64.7,1.3,1,1.95-1.7.56-3.21,1.09-4.42,1.53-.38-.61-.77-1.23-1.17-1.84a128,128,0,0,0-12.63-16.4c1.09-1.21,2.34-2.52,3.74-3.87q3.06,3.39,5.87,7.09c-.67.91-1.06,1.49-1.13,1.61a1.41,1.41,0,0,0,.41,2,1.38,1.38,0,0,0,.77.23,1.4,1.4,0,0,0,1.19-.64s.19-.29.53-.76q1.58,2.22,3,4.54A2.84,2.84,0,0,0,209.48,83ZM13.65,101.52c-13,32.33-7.46,63.12,16.52,91.53C45.68,211.41,65.81,224.16,90,231c-29.6-5.77-64-27.72-78.13-65.84a95.54,95.54,0,0,1-2.55-58.92A97.59,97.59,0,0,1,39,58.79C29.63,71.57,20.06,85.59,13.65,101.52Zm-.23,52.19c-5.57-19.76-3.31-39.4,6.92-60C28,78.2,38.41,64.37,49.27,50.38A7,7,0,0,1,50.87,49c2.67-1.81,5.4-3.48,8.17-5l3.13,2.95a1.42,1.42,0,0,0,1.94-2.07l-2.45-2.31a113.34,113.34,0,0,1,53.67-13.11q3.42,0,6.89.18A33.64,33.64,0,0,1,131.54,32l.77.28c20.71,7.45,38.21,18,52.36,31.5l-.2.23a2.83,2.83,0,0,0,4.21,3.78c.76.79,1.51,1.6,2.25,2.41a54,54,0,0,0-3.32,4.43,1.42,1.42,0,0,0,.41,2,1.47,1.47,0,0,0,.77.23,1.42,1.42,0,0,0,1.19-.65s1-1.56,2.88-3.82a127.42,127.42,0,0,1,12.58,17.19,2.82,2.82,0,0,0,2.22,4.58,3.57,3.57,0,0,0,.46,0c7.42,13.38,11.11,27.13,10.95,40.9-.2,18.47-6.41,36.27-18.43,52.91-12.75,17.66-27.25,30-44.33,37.83a82.39,82.39,0,0,1-35.15,7.49h0c-19.67-.13-38.57-5.72-57.77-17.09C37.61,200.89,20.8,179.89,13.42,153.71Zm138-128.9L153.94,23l7,3.52-1.54,1.34Zm14.13-2.32-7.11-2.72,1.12-.81,7,2.68Zm-20.47-.11-.76-.29,1.22,0Zm3.58,4.41L157,30l-.09.08a2.94,2.94,0,0,0-.64.82q-4.57-1.59-9.31-2.82ZM187.1,61.21c-1.71-1.6-3.48-3.16-5.29-4.68a2.56,2.56,0,0,0,.82.13,2.83,2.83,0,0,0,2.24-1.1s.55-.69,1.52-1.75c1.53,1.21,3,2.47,4.51,3.77C189.37,59,188.11,60.19,187.1,61.21Zm-100.84-35a1.33,1.33,0,0,0,.65.19l.23,0a1.34,1.34,0,0,0,.7-.33c.75-.07,1.52-.11,2.29-.16a3,3,0,0,0,.44.49c-4.23.93-8.4,2-12.5,3.36l-.78-1.88A61.65,61.65,0,0,1,86.26,26.18ZM72.71,31.57c-1,.36-2,.72-2.92,1.1L69,30.75c.94-.42,1.89-.81,2.86-1.18ZM180.13,55.15a161.83,161.83,0,0,0-36.32-22l-.62-.28a107.26,107.26,0,0,1,38.66,17.49c-.88,1-1.37,1.61-1.46,1.73A2.83,2.83,0,0,0,180.13,55.15Zm11.07,10c1-1,2.31-2.26,3.88-3.66q1,1,2,2c-1.39,1.34-2.64,2.64-3.73,3.85C192.64,66.64,191.93,65.9,191.2,65.16ZM66.46,32l.71,1.79c-.9.38-1.8.76-2.69,1.16a2.79,2.79,0,0,0-.22-1.74C65,32.77,65.72,32.37,66.46,32Zm-6.12,4.89c-1,.5-2,1-3,1.56l-.2-.19c.82-.68,1.65-1.34,2.49-2A2.83,2.83,0,0,0,60.34,36.87ZM179.87,213.76c3.25-2.8,6.6-5.69,9.79-8.8,14.64-14.26,24.28-29.24,29.48-45.78,7.12-22.64,4.72-45-7.11-66.47,1.41-.5,2.74-.95,4.05-1.38a98,98,0,0,1,7.56,24.93c7.39,45.23-18.06,82.55-45.65,99.13C178.6,214.85,179.23,214.31,179.87,213.76ZM168.7,27.27l.43-.37,8.74,3.35-1.07,1.1Zm2.85-2.48,1-.86,8.36,3.21L180,28Zm-18.32-8.26-1.11.81-2.93-1.12a.29.29,0,0,0-.1,0L151.8,16Zm-5.63.1-.56-.28,1-.08A1.38,1.38,0,0,0,147.6,16.63Zm.63,3.49-1,.71a1,1,0,0,0,0-.25,1.42,1.42,0,0,0-1.46-1.37l-8.32.25-.94-.36,3.3-2.2,1.73-.14ZM137,22.31l5.34,2.05-.27.19a2.82,2.82,0,0,0-1.16,2.09,125.78,125.78,0,0,0-12.79-1.91l3.36-2.25ZM124.07,24a1.2,1.2,0,0,0-.36.35c-1.82-.08-3.64-.1-5.43-.11s-3.72,0-5.59-.12L114.41,23l11.73-.36Zm-19.75-.49c-1-.06-2-.1-3-.14l3.14-.09A1.63,1.63,0,0,0,104.32,23.54Zm-16.15.28v0h.16ZM162,33.07l.93-.8,9.44,3.62-1,1a1.53,1.53,0,0,0-.27.41Q166.7,35,162,33.07ZM101.7,20.55l1.24-.83,7-.53-1.75,1.17Zm108.62,50a77.4,77.4,0,0,1,5.79-6L223.62,72c-3.5,1.62-6.69,3.33-9.08,4.68Q212.56,73.53,210.32,70.54Zm-1.78-2.32Q206,65,203.16,62a65.34,65.34,0,0,1,5.94-4.4l5,4.92A76.83,76.83,0,0,0,208.54,68.22Zm-7.33-8.37c-.62-.64-1.27-1.26-1.91-1.89,1.76-1.4,3.71-2.86,5.85-4.32L207,55.5A68.85,68.85,0,0,0,201.21,59.85Zm-2-9c.41-.46.91-1,1.49-1.57l.3.29C200.41,50,199.81,50.39,199.23,50.82Zm-13.49-4.43a116,116,0,0,0-12.09-7.72L175.28,37l5.74,2.2a2.83,2.83,0,0,0,4.39,3.55l2.52-2.6.23.11a1.42,1.42,0,0,0,1.9-.63,1.44,1.44,0,0,0,.14-.81l2.15,2.13A68,68,0,0,0,185.74,46.39Zm-6.28-13.7,1.29-1.34,5.69,2.19-1.74,1.79Zm3.44-3.55.87-.9,5.69,2.19-.87.89ZM144.64,13.69l.6-.4.77.29Zm-14.06,6L118.85,20l2.58-1.72,12.65-1ZM89,20.94l-1.3,0-.31-1.93,1.26-.34Zm-4.1.54a1.36,1.36,0,0,0-.38,1,1.38,1.38,0,0,0,.74,1.2l.07.49-1.44.23a2.77,2.77,0,0,0-.29-1.73l-1.19-2.25,2.23-.61Zm-6.31,3.86.08.1c-.73.17-1.46.34-2.17.53l-1.46-3.5L76.83,22Zm-7.53,2.31c-1,.35-1.91.71-2.85,1.1L66.67,24.8l2.89-.8Zm-5.44,2.24c-.82.39-1.63.79-2.42,1.2l-2.35-4.68,3.06-.85ZM200.73,45.26l-1.88-1.86a53.77,53.77,0,0,1,11.41-5.53A66.13,66.13,0,0,0,200.73,45.26Z"/>
	  </clipPath>
		<rect id="square" width="500px" height="500px"></rect>
	</defs>
	<g clip-path="url(#faceShape)">
		<use href="#square" class="inner-square" fill="#000"></use>
		<use href="#square" class="offset-square" fill="#e292ad"></use>
	</g>
</svg>